<?xml version="1.0" encoding="UTF-8" ?>
<!DOCTYPE svg PUBLIC "-//W3C//DTD SVG 1.1//EN" "http://www.w3.org/Graphics/SVG/1.1/DTD/svg11.dtd">
<svg width="500pt" height="500pt" viewBox="0 0 500 500" version="1.1" xmlns="http://www.w3.org/2000/svg">
<path fill="none" d=" M 0.00 0.00 L 500.00 0.00 L 500.00 500.00 L 0.00 500.00 L 0.00 0.00 Z" />
<path fill="#fff" d=" M 209.76 35.05 C 208.13 30.05 209.19 24.73 211.02 19.95 C 215.53 27.19 220.97 35.38 229.97 37.11 C 238.35 38.51 245.85 32.82 250.91 26.74 C 255.96 32.90 263.56 38.59 271.98 37.08 C 280.88 35.26 286.21 27.12 290.80 20.00 C 292.73 24.96 293.57 30.57 291.83 35.72 C 288.18 46.85 275.30 53.79 263.98 50.99 C 258.89 49.78 254.43 46.76 250.94 42.94 C 247.61 46.39 243.63 49.35 238.96 50.67 C 227.18 54.33 213.19 46.94 209.76 35.05 Z" />
<path fill="#fff" d=" M 231.64 64.74 C 239.34 61.09 245.27 54.71 250.90 48.48 C 256.53 54.72 262.45 61.10 270.15 64.75 C 270.08 94.50 270.20 124.25 270.09 153.99 C 268.23 195.04 266.72 236.11 264.69 277.15 C 289.85 256.39 311.22 229.93 321.88 198.79 C 330.80 173.33 331.89 145.49 326.50 119.16 C 322.22 98.01 314.15 77.64 302.86 59.26 C 319.27 70.78 330.95 88.00 338.80 106.24 C 346.89 125.16 351.07 145.58 352.55 166.05 C 354.61 193.72 346.98 221.77 332.10 245.10 C 318.30 266.72 299.28 285.03 277.24 298.12 C 296.08 306.17 316.94 307.19 337.15 307.74 C 313.95 315.58 288.26 318.32 264.44 311.62 C 259.81 317.41 255.40 323.36 250.94 329.28 C 246.38 323.44 242.01 317.45 237.39 311.65 C 213.58 318.23 187.91 315.68 164.75 307.74 C 184.88 307.21 205.64 306.13 224.44 298.19 C 199.75 283.15 178.46 262.02 164.67 236.50 C 153.80 216.48 148.28 193.61 148.89 170.84 C 150.48 142.60 156.81 114.00 171.51 89.55 C 178.63 77.91 187.55 67.03 198.95 59.36 C 180.99 88.42 170.97 122.70 172.13 156.95 C 172.95 184.26 182.12 211.05 197.28 233.70 C 208.15 250.07 221.81 264.48 236.92 276.99 C 235.89 248.66 234.45 220.34 233.38 192.02 C 232.73 175.01 231.44 158.01 231.68 140.98 C 231.66 115.57 231.74 90.15 231.64 64.74 Z" />
<path fill="#fff" d=" M 141.44 77.54 C 154.51 67.96 169.29 60.71 184.80 56.07 C 172.50 66.31 161.91 78.49 152.70 91.56 C 141.21 108.05 132.21 126.40 127.09 145.88 C 119.51 174.29 121.10 204.83 130.54 232.61 C 136.10 249.35 144.26 265.14 153.81 279.94 C 129.39 265.13 110.87 241.30 101.42 214.44 C 92.37 188.99 91.41 160.51 99.74 134.73 C 107.08 111.86 122.04 91.64 141.44 77.54 Z" />
<path fill="#fff" d=" M 317.03 55.99 C 345.29 64.72 371.76 81.67 388.34 106.55 C 401.85 126.55 408.49 150.91 407.70 174.98 C 406.78 216.91 384.00 258.08 348.01 279.93 C 363.94 255.29 375.86 227.47 378.75 198.06 C 381.63 171.14 376.48 143.61 365.00 119.16 C 353.71 95.04 337.22 73.35 317.03 55.99 Z" />
<path fill="#fff" d=" M 368.38 336.38 C 369.28 333.88 370.20 330.68 373.02 329.76 C 376.36 329.09 379.81 329.91 383.01 330.90 C 385.93 331.70 384.09 335.37 382.19 336.30 C 378.70 338.16 374.98 339.56 371.42 341.28 C 373.08 342.99 375.61 345.26 374.08 347.88 C 373.08 351.02 369.42 349.63 367.02 349.97 C 362.97 352.11 362.55 356.99 360.73 360.72 C 360.16 360.87 359.02 361.18 358.45 361.34 C 358.64 358.46 360.02 355.02 357.24 352.93 C 355.21 355.07 353.40 357.41 351.27 359.45 C 350.16 362.71 349.19 366.25 346.63 368.72 C 343.33 370.35 339.67 371.65 335.94 371.39 C 339.32 368.21 343.71 366.23 346.64 362.53 C 345.03 361.76 343.02 361.52 341.94 359.95 C 342.08 356.83 343.68 353.97 345.49 351.52 C 347.83 349.22 350.93 351.49 351.92 353.96 C 353.67 351.92 355.32 349.80 357.18 347.85 C 358.98 347.95 360.80 348.18 362.47 348.92 C 364.39 346.61 366.12 344.14 367.69 341.58 C 369.96 337.96 374.07 336.38 377.53 334.19 C 376.07 333.97 374.62 333.89 373.17 333.97 C 371.63 334.89 370.21 336.08 368.38 336.38 Z" />
<path fill="#fff" d=" M 251.51 337.63 C 251.96 337.34 252.85 336.74 253.29 336.44 C 253.14 341.94 251.90 347.42 252.40 352.93 C 252.68 355.03 254.88 356.97 257.05 356.15 C 259.28 355.01 261.07 352.99 263.74 352.90 C 264.06 352.24 264.68 350.92 264.99 350.26 C 265.59 350.26 266.79 350.26 267.39 350.26 C 268.20 348.94 268.47 346.96 270.45 346.81 C 270.39 349.36 270.29 352.35 268.26 354.21 C 265.99 356.06 264.01 358.77 260.72 358.38 C 258.87 360.20 257.51 362.76 254.96 363.69 C 253.40 363.84 251.84 363.60 250.30 363.47 C 248.72 366.99 246.60 372.00 241.98 371.77 C 239.84 371.99 238.21 370.36 237.01 368.82 C 236.68 367.49 237.96 366.51 238.43 365.39 C 240.18 362.61 239.91 359.16 240.00 356.01 C 239.84 350.61 241.35 345.31 243.47 340.39 C 243.92 340.04 244.83 339.34 245.28 338.99 C 244.85 348.48 245.12 358.43 241.08 367.26 C 244.03 365.92 247.31 363.77 247.48 360.17 C 248.12 352.58 247.67 344.52 251.51 337.63 Z" />
<path fill="#fff" d=" M 223.14 346.12 C 224.28 343.95 224.95 341.37 226.81 339.68 C 229.29 339.61 232.47 340.33 233.53 342.87 C 233.63 346.22 230.82 348.67 228.06 350.03 C 225.23 351.44 222.75 353.44 220.63 355.78 C 221.93 356.83 223.50 357.64 224.51 359.02 C 225.78 365.74 222.86 372.44 218.93 377.75 C 215.97 381.71 211.02 384.18 206.03 383.45 C 200.85 383.28 197.79 377.80 197.98 373.08 C 198.15 365.29 201.81 358.11 205.32 351.34 C 205.90 351.07 207.07 350.54 207.65 350.27 C 206.92 356.52 202.33 361.66 201.98 367.99 C 201.72 370.75 203.32 373.65 206.04 374.47 C 211.99 376.28 219.48 372.86 221.18 366.68 C 219.33 365.58 217.50 364.45 215.80 363.14 C 215.82 357.15 219.06 351.82 223.81 348.36 C 223.65 347.80 223.31 346.68 223.14 346.12 Z" />
<path fill="#fff" d=" M 312.24 347.28 C 315.10 344.48 318.44 341.54 322.65 341.31 C 322.55 344.38 321.26 347.17 319.85 349.84 C 319.08 349.72 317.53 349.49 316.76 349.37 C 313.54 351.22 310.74 353.77 308.94 357.05 C 310.84 358.23 314.06 358.94 313.75 361.83 C 313.73 369.07 311.26 376.77 305.69 381.66 C 302.17 384.87 296.92 385.78 292.41 384.47 C 289.25 383.46 287.26 380.28 287.09 377.06 C 286.13 368.93 290.47 361.63 293.65 354.49 C 294.34 353.15 295.08 350.76 297.14 351.78 C 296.12 358.70 290.69 364.59 291.13 371.80 C 292.19 376.43 298.12 377.56 301.95 375.81 C 305.85 374.52 308.69 371.28 310.21 367.54 C 308.12 366.45 304.43 366.12 304.50 363.02 C 304.42 356.91 308.29 351.61 312.24 347.28 Z" />
<path fill="#fff" d=" M 156.44 347.52 C 157.32 345.49 157.85 342.86 160.38 342.29 C 159.23 351.23 161.44 361.06 156.64 369.18 C 156.04 369.41 154.83 369.88 154.23 370.12 C 154.54 366.74 155.30 363.40 155.26 360.00 C 155.34 355.83 154.79 351.47 156.44 347.52 Z" />
<path fill="#fff" d=" M 187.42 347.57 C 188.30 345.52 188.86 342.89 191.37 342.26 C 190.24 351.20 192.45 361.06 187.63 369.19 C 187.03 369.43 185.83 369.90 185.24 370.14 C 185.53 366.75 186.30 363.41 186.26 360.01 C 186.34 355.85 185.79 351.51 187.42 347.57 Z" />
<path fill="#fff" d=" M 276.42 347.57 C 277.30 345.53 277.85 342.86 280.38 342.30 C 279.22 351.23 281.45 361.06 276.64 369.18 C 276.04 369.42 274.83 369.89 274.23 370.13 C 274.53 366.75 275.30 363.41 275.26 360.01 C 275.34 355.86 274.79 351.51 276.42 347.57 Z" />
<path fill="#fff" d=" M 148.20 348.32 C 148.71 348.05 149.73 347.53 150.24 347.27 C 150.14 356.05 150.12 365.38 145.35 373.12 C 142.14 379.01 136.10 384.09 129.02 383.52 C 124.55 383.86 120.29 380.42 119.74 375.97 C 118.80 369.63 120.96 363.23 124.02 357.75 C 124.43 356.39 125.83 356.33 126.98 356.08 C 126.08 360.44 123.22 364.33 123.41 368.92 C 123.46 372.40 126.86 374.81 130.06 375.18 C 137.60 375.93 145.52 369.89 145.69 362.08 C 145.60 357.39 145.67 352.45 148.20 348.32 Z" />
<path fill="#fff" d=" M 180.26 350.23 C 181.24 349.28 181.77 347.49 183.54 347.81 C 183.38 350.89 182.39 354.06 180.43 356.48 C 178.73 357.80 176.64 358.56 174.97 359.94 C 172.49 363.04 172.56 367.82 169.07 370.15 C 166.14 371.61 162.76 371.78 159.54 371.71 C 160.93 368.44 164.57 367.29 167.16 365.18 C 170.66 363.04 171.18 358.63 173.37 355.46 C 175.00 352.92 178.50 352.63 180.26 350.23 Z" />
<path fill="#fff" d=" M 334.52 352.39 C 335.10 352.23 336.28 351.91 336.87 351.75 C 336.44 356.93 334.64 361.90 332.43 366.56 C 330.18 371.21 324.23 371.49 319.74 371.73 C 320.84 368.62 324.22 367.59 326.57 365.67 C 331.05 362.59 332.11 356.92 334.52 352.39 Z" />
<path fill="#fff" d=" M 130.71 363.01 C 131.67 360.14 133.05 357.44 134.81 354.99 C 136.64 356.32 139.31 357.42 139.51 360.02 C 139.49 362.22 138.35 364.32 136.82 365.85 C 134.38 367.29 132.62 364.08 130.71 363.01 Z" />
<path fill="#fff" d=" M 373.67 384.08 C 373.84 381.59 375.14 379.31 376.62 377.36 C 378.69 377.07 380.04 378.71 381.11 380.22 C 382.00 382.86 379.95 385.17 378.75 387.33 C 376.88 386.72 374.43 386.09 373.67 384.08 Z" />
<path fill="#fff" d=" M 177.32 386.20 C 177.91 385.22 178.50 384.24 179.09 383.27 C 184.63 382.96 185.09 390.54 180.94 392.72 C 179.41 393.25 178.29 391.75 177.10 391.11 C 176.35 392.18 175.60 393.24 174.84 394.32 C 172.68 393.93 171.03 392.53 169.48 391.09 C 170.83 388.79 171.42 385.64 173.89 384.29 C 175.07 384.86 176.21 385.50 177.32 386.20 Z" />
<path fill="#fff" d=" M 267.42 400.81 C 268.03 399.77 268.65 398.75 269.27 397.72 C 270.68 398.14 272.47 398.27 273.22 399.78 C 276.08 403.20 270.79 410.28 267.30 405.76 C 266.57 406.68 265.87 407.62 265.07 408.48 C 262.82 408.96 261.36 406.93 259.69 405.84 C 260.60 403.30 261.89 400.93 263.30 398.64 C 264.74 399.23 266.10 399.97 267.42 400.81 Z" />
<path fill="#fff" d=" M 138.21 412.70 C 140.20 413.10 141.95 414.29 142.89 416.13 C 143.43 418.52 141.87 420.75 140.56 422.61 C 138.36 423.28 136.67 421.02 134.92 420.09 C 135.65 417.48 136.82 415.02 138.21 412.70 Z" />
<path fill="#fff" d=" M 225.66 418.75 C 226.70 417.05 228.45 414.72 230.56 416.48 C 233.57 418.25 232.84 422.24 230.53 424.26 C 229.29 426.04 227.14 424.49 225.88 423.56 C 224.82 424.69 224.01 426.65 222.15 426.51 C 220.71 425.61 219.44 424.46 218.17 423.35 C 219.30 421.15 220.22 418.80 221.84 416.90 C 223.44 416.67 224.53 417.84 225.66 418.75 Z" />
<path fill="#fff" d=" M 248.16 415.69 C 249.58 416.18 251.35 416.37 252.13 417.86 C 253.83 420.38 252.07 423.53 250.07 425.28 C 248.53 425.71 247.31 424.50 246.07 423.86 C 245.37 424.75 244.64 425.61 243.88 426.45 C 241.77 426.99 240.20 425.29 238.84 423.96 C 238.75 421.85 240.37 419.97 241.33 418.15 C 242.37 415.98 244.97 417.89 246.16 418.97 C 246.82 417.87 247.48 416.77 248.16 415.69 Z" />
<path fill="#fff" d=" M 332.46 422.53 C 332.93 422.26 333.87 421.74 334.34 421.48 C 333.78 426.03 332.97 430.56 332.72 435.15 C 333.49 437.60 333.72 440.44 336.09 441.99 C 337.83 437.99 339.12 433.43 342.96 430.87 C 344.63 431.17 346.84 430.48 347.98 432.13 C 347.88 432.85 347.68 434.30 347.58 435.03 L 349.40 434.98 C 348.18 439.40 345.94 443.59 342.67 446.82 C 339.37 450.15 333.30 450.75 329.95 447.20 C 326.11 450.93 326.63 457.11 322.62 460.73 C 319.32 462.35 315.65 463.66 311.92 463.38 C 315.33 460.22 319.70 458.22 322.64 454.54 C 321.03 453.76 319.03 453.51 317.94 451.96 C 318.08 448.82 319.69 445.93 321.54 443.47 C 323.30 441.53 325.58 443.29 327.45 444.04 C 329.97 437.03 327.77 428.79 332.46 422.53 Z" />
<path fill="#fff" d=" M 256.21 431.29 C 260.80 428.02 265.47 424.30 271.15 423.30 C 269.85 425.81 268.82 428.94 266.11 430.29 C 261.59 432.65 256.83 434.63 252.87 437.91 C 255.55 437.99 258.22 437.98 260.90 438.14 C 259.04 443.30 253.28 445.44 250.59 450.04 C 248.30 451.47 245.59 451.58 242.98 451.46 C 241.53 452.54 240.11 453.65 238.71 454.80 C 236.88 454.67 235.06 454.45 233.25 454.19 C 231.76 456.50 229.97 458.60 227.23 459.42 C 223.93 461.70 220.18 465.25 215.85 463.41 C 212.14 462.38 213.00 457.60 210.54 455.44 C 210.67 449.19 211.53 442.96 212.78 436.84 C 213.65 434.34 214.07 431.26 216.56 429.79 C 216.95 436.35 215.16 442.78 214.93 449.32 C 216.90 451.22 216.99 454.26 219.08 456.12 C 220.52 452.81 221.81 449.26 224.74 446.96 C 225.65 446.97 227.47 446.99 228.38 446.99 C 229.30 448.80 229.68 450.78 229.84 452.79 C 231.33 451.52 232.82 450.26 234.23 448.89 C 235.80 449.06 237.37 449.28 238.94 449.52 C 240.27 445.41 242.34 439.08 247.74 439.80 C 249.60 436.11 253.08 433.79 256.21 431.29 Z" />
<path fill="#fff" d=" M 439.06 430.90 C 438.90 427.92 440.77 425.19 442.82 423.18 C 444.23 424.30 446.02 425.26 446.72 427.03 C 447.07 429.40 445.60 431.58 444.17 433.34 C 442.15 434.13 440.52 431.99 439.06 430.90 Z" />
<path fill="#fff" d=" M 124.70 429.03 C 127.46 429.27 130.55 431.86 129.27 434.87 C 128.39 436.49 127.67 439.81 125.19 438.85 C 123.81 438.17 122.58 437.18 121.60 436.02 C 122.07 433.47 123.41 431.22 124.70 429.03 Z" />
<path fill="#fff" d=" M 117.14 430.92 L 118.63 429.90 C 118.88 436.28 117.22 442.53 117.00 448.89 C 118.65 451.22 118.65 455.26 121.97 455.99 C 125.21 456.07 126.21 451.86 129.09 451.08 C 130.88 451.19 132.68 451.58 134.48 451.14 C 132.96 448.88 130.06 449.67 127.82 448.97 C 126.83 445.25 129.72 442.02 131.20 438.82 C 133.81 438.72 136.52 439.83 137.47 442.44 C 139.11 447.29 137.00 452.81 133.46 456.28 C 132.08 457.72 130.15 456.51 128.53 456.37 C 126.06 458.29 124.97 461.49 122.40 463.27 C 120.28 464.13 117.28 464.14 115.76 462.14 C 114.12 460.11 114.51 457.07 112.50 455.28 C 113.19 447.10 113.27 438.35 117.14 430.92 Z" />
<path fill="#fff" d=" M 69.37 441.41 C 72.56 437.68 76.49 433.74 81.65 433.31 C 81.55 436.38 80.26 439.18 78.84 441.84 C 78.07 441.72 76.54 441.49 75.77 441.37 C 72.55 443.22 69.74 445.77 67.94 449.05 C 69.88 450.24 73.13 450.98 72.76 453.94 C 72.69 462.31 69.29 471.70 61.48 475.78 C 56.85 477.81 49.91 477.88 47.16 472.88 C 44.65 467.10 46.43 460.51 48.76 454.98 C 50.53 451.26 52.03 447.39 54.11 443.84 C 54.62 443.82 55.64 443.79 56.15 443.78 C 55.07 450.47 50.25 456.11 49.99 463.04 C 50.41 467.71 56.07 469.59 59.99 468.13 C 64.29 466.99 67.61 463.62 69.21 459.55 C 67.33 458.48 64.29 458.35 63.60 455.91 C 62.96 450.47 66.13 445.48 69.37 441.41 Z" />
<path fill="#fefefe" d=" M 340.48 437.30 C 341.45 436.24 342.55 435.32 343.63 434.37 C 344.76 434.69 345.90 435.01 347.04 435.33 C 345.76 437.26 344.39 439.18 342.37 440.42 C 341.87 439.33 340.53 438.53 340.48 437.30 Z" />
<path fill="#fff" d=" M 421.40 439.63 C 422.29 437.56 422.83 434.90 425.37 434.26 C 424.24 443.18 426.42 452.99 421.69 461.12 C 421.07 461.37 419.85 461.87 419.23 462.12 C 419.53 458.74 420.30 455.40 420.26 452.00 C 420.34 447.87 419.79 443.55 421.40 439.63 Z" />
<path fill="#fff" d=" M 183.67 438.75 C 184.69 437.03 186.45 434.73 188.57 436.48 C 191.59 438.27 190.82 442.28 188.49 444.29 C 187.25 446.03 185.14 444.48 183.89 443.58 C 182.98 444.60 182.25 445.86 181.00 446.53 C 178.99 446.38 177.71 444.46 176.17 443.36 C 177.30 441.16 178.22 438.80 179.84 436.90 C 181.44 436.68 182.54 437.84 183.67 438.75 Z" />
<path fill="#fff" d=" M 374.67 438.75 C 375.65 436.69 378.06 434.62 380.05 436.88 C 383.26 439.30 380.74 443.10 378.72 445.33 C 377.37 444.91 376.08 444.35 374.87 443.62 C 373.95 444.69 373.11 445.85 371.92 446.64 C 370.00 446.12 368.65 444.56 367.17 443.34 C 368.30 441.15 369.23 438.80 370.83 436.90 C 372.43 436.67 373.54 437.84 374.67 438.75 Z" />
<path fill="#fefefe" d=" M 249.08 440.87 C 250.76 441.07 252.45 441.33 254.13 441.60 C 252.46 443.10 250.79 444.60 249.15 446.14 C 249.17 444.38 249.15 442.62 249.08 440.87 Z" />
<path fill="#fff" d=" M 104.37 443.27 C 105.59 443.05 106.82 442.90 108.07 442.82 C 111.94 446.95 109.51 453.00 107.52 457.46 C 105.55 462.72 99.14 463.18 94.42 464.20 C 97.14 459.98 102.68 458.74 105.29 454.34 C 103.48 453.98 101.26 454.02 100.27 452.14 C 100.64 448.84 102.35 445.83 104.37 443.27 Z" />
<path fill="#fff" d=" M 152.37 443.28 C 153.59 443.05 154.82 442.90 156.06 442.82 C 159.95 446.95 157.51 453.00 155.52 457.47 C 153.54 462.72 147.14 463.18 142.42 464.20 C 145.14 459.99 150.64 458.73 153.28 454.38 C 151.37 454.13 149.53 453.60 148.06 452.31 C 148.90 449.06 150.14 445.84 152.37 443.28 Z" />
<path fill="#fff" d=" M 299.97 448.74 C 302.01 447.20 302.54 444.41 303.94 442.35 C 306.54 442.48 309.07 443.10 311.53 443.93 C 311.48 446.01 311.57 448.26 310.19 450.00 C 307.67 454.08 302.20 453.39 298.52 455.72 C 295.42 457.92 292.77 461.00 291.89 464.78 C 288.88 475.83 289.35 487.40 288.54 498.71 L 286.59 499.64 C 286.41 490.39 286.52 481.13 287.34 471.92 C 288.00 462.91 291.65 453.30 299.97 448.74 Z" />
<path fill="#fff" d=" M 448.06 452.30 C 448.82 448.88 450.40 445.71 452.57 442.97 C 453.47 442.98 455.26 442.98 456.15 442.99 C 459.95 447.06 457.46 453.03 455.54 457.43 C 453.58 462.71 447.15 463.18 442.42 464.20 C 445.14 459.99 450.64 458.73 453.28 454.37 C 451.36 454.13 449.52 453.61 448.06 452.30 Z" />
<path fill="#fff" d=" M 90.67 448.50 C 91.63 446.50 91.97 443.67 94.79 443.60 C 94.55 448.84 92.63 453.85 90.43 458.55 C 88.21 463.20 82.28 463.45 77.80 463.76 C 78.65 460.81 81.79 459.81 83.98 458.09 C 87.50 456.01 89.17 452.10 90.67 448.50 Z" />
<path fill="#fefefe" d=" M 244.41 444.28 C 245.29 444.48 245.97 444.97 246.47 445.76 C 245.53 446.84 244.37 447.18 243.01 446.79 C 243.15 445.76 243.61 444.92 244.41 444.28 Z" />
<path fill="#fff" d=" M 410.66 448.52 C 411.63 446.53 411.95 443.64 414.81 443.62 C 414.53 448.86 412.63 453.87 410.42 458.58 C 408.19 463.20 402.28 463.44 397.81 463.76 C 398.65 460.79 401.81 459.80 404.01 458.07 C 407.50 455.99 409.17 452.10 410.66 448.52 Z" />
<path fill="#fff" d=" M 435.64 454.96 C 437.96 451.68 438.94 447.71 440.92 444.26 C 441.48 444.12 442.61 443.85 443.18 443.71 C 442.66 448.87 440.93 453.86 438.70 458.52 C 436.50 463.24 430.40 463.55 425.88 463.66 C 427.85 459.48 433.14 458.69 435.64 454.96 Z" />
<path fill="#fff" d=" M 280.17 445.23 C 280.84 445.03 282.17 444.63 282.83 444.43 C 280.92 448.42 278.88 452.39 277.77 456.70 C 279.39 458.37 281.84 460.31 280.41 462.92 C 279.90 465.34 277.05 465.43 275.20 464.65 C 273.41 462.21 274.39 458.87 275.15 456.20 C 276.53 452.43 277.78 448.49 280.17 445.23 Z" />
<path fill="#fff" d=" M 200.93 451.68 C 203.64 450.57 204.71 447.35 207.57 446.50 C 207.19 451.25 204.97 456.33 200.55 458.61 C 196.11 461.15 191.08 462.43 186.05 463.16 C 180.75 463.71 175.38 464.53 170.07 463.60 C 166.97 463.37 162.96 462.40 162.12 458.92 C 161.69 455.59 162.72 452.29 163.34 449.05 C 163.94 449.05 165.14 449.06 165.74 449.06 C 165.77 449.86 165.83 451.47 165.86 452.27 C 169.68 455.71 175.18 455.59 180.00 455.55 C 187.13 455.77 194.45 454.78 200.93 451.68 Z" />
<path fill="#fff" d=" M 391.82 451.74 C 394.60 450.66 395.67 447.38 398.56 446.49 C 398.20 451.25 395.97 456.33 391.54 458.61 C 385.89 461.82 379.35 463.09 372.93 463.58 C 367.29 464.26 361.29 464.36 355.92 462.32 C 350.90 459.65 353.67 453.37 354.34 449.06 C 354.93 449.05 356.11 449.03 356.70 449.02 C 356.75 449.84 356.84 451.48 356.88 452.31 C 360.72 455.70 366.19 455.59 371.01 455.55 C 378.09 455.77 385.36 454.79 391.82 451.74 Z" />
<path fill="#fefefe" d=" M 222.51 453.97 C 223.28 453.10 224.04 452.21 224.95 451.48 C 225.95 451.71 227.58 453.20 226.06 453.97 C 225.07 455.02 223.65 454.04 222.51 453.97 Z" />
<path fill="#fff" d=" M 230.73 472.84 C 231.42 471.85 232.07 470.84 232.89 469.95 C 234.97 469.48 236.60 471.16 237.46 472.85 C 237.97 475.52 236.37 478.13 234.13 479.47 C 232.89 479.19 231.86 478.40 230.78 477.78 C 229.98 478.76 229.21 479.78 228.28 480.65 C 226.17 480.57 224.05 479.02 223.41 477.04 C 224.29 474.86 225.39 472.73 226.89 470.90 C 228.48 470.76 229.56 471.99 230.73 472.84 Z" />
</svg>
